<svg xmlns="http://www.w3.org/2000/svg" width="15.982" height="15.982" viewBox="0 0 15.982 15.982">
  <path id="result_2_" data-name="result (2)" d="M7.991,0a7.63,7.63,0,0,1,2.114.291A7.908,7.908,0,0,1,12.02,1.1a8.044,8.044,0,0,1,2.863,2.863,7.906,7.906,0,0,1,.807,1.914,7.628,7.628,0,0,1,.291,2.114,7.716,7.716,0,0,1-.291,2.123,7.941,7.941,0,0,1-.807,1.906,7.857,7.857,0,0,1-1.249,1.623,8.047,8.047,0,0,1-1.615,1.249,8.374,8.374,0,0,1-1.914.807,7.84,7.84,0,0,1-2.114.283A7.931,7.931,0,0,1,5.868,15.7a8.414,8.414,0,0,1-1.906-.807A7.916,7.916,0,0,1,1.09,12.02a8.414,8.414,0,0,1-.807-1.906A7.93,7.93,0,0,1,0,7.991,7.839,7.839,0,0,1,.283,5.877,8.371,8.371,0,0,1,1.09,3.962,8.049,8.049,0,0,1,2.339,2.347,7.858,7.858,0,0,1,3.962,1.1,7.941,7.941,0,0,1,5.868.291,7.718,7.718,0,0,1,7.991,0Zm0,14.916a6.722,6.722,0,0,0,1.84-.25,7.014,7.014,0,0,0,1.648-.7,6.834,6.834,0,0,0,1.407-1.082,6.934,6.934,0,0,0,1.082-1.4,7.176,7.176,0,0,0,.7-1.656,6.9,6.9,0,0,0,0-3.679,7.013,7.013,0,0,0-.7-1.648,6.861,6.861,0,0,0-2.489-2.489,7.014,7.014,0,0,0-1.648-.7,6.9,6.9,0,0,0-3.679,0,7.175,7.175,0,0,0-1.656.7A6.935,6.935,0,0,0,3.1,3.1,6.831,6.831,0,0,0,2.014,4.5a7.014,7.014,0,0,0-.7,1.648,6.9,6.9,0,0,0,0,3.679,7.176,7.176,0,0,0,.7,1.656,6.99,6.99,0,0,0,2.48,2.481,7.176,7.176,0,0,0,1.656.7A6.722,6.722,0,0,0,7.991,14.916Zm.516-8.432a1.6,1.6,0,0,1,.441.233,1.577,1.577,0,0,1,.558.782,1.449,1.449,0,0,1,.083.491,1.568,1.568,0,0,1-.125.624,1.589,1.589,0,0,1-.849.849,1.623,1.623,0,0,1-1.249,0,1.589,1.589,0,0,1-.849-.849,1.568,1.568,0,0,1-.125-.624A1.6,1.6,0,0,1,6.468,7.5a1.781,1.781,0,0,1,.225-.433,1.568,1.568,0,0,1,.341-.35,1.6,1.6,0,0,1,.441-.233H7.458V2.156H8.524V6.484ZM7.991,8.524a.54.54,0,1,0-.375-.158A.512.512,0,0,0,7.991,8.524Zm2.048-6.01a5.824,5.824,0,0,1,1.565.874,5.625,5.625,0,0,1,1.2,1.265,5.888,5.888,0,0,1,1.041,3.338,5.858,5.858,0,0,1-.441,2.247,5.691,5.691,0,0,1-1.265,1.9l-.757-.757a4.764,4.764,0,0,0,1.407-3.388,4.626,4.626,0,0,0-.225-1.44,4.814,4.814,0,0,0-1.615-2.322,4.565,4.565,0,0,0-1.274-.716l.366-1ZM2.131,7.991a5.809,5.809,0,0,1,2.239-4.6,5.962,5.962,0,0,1,1.573-.874l.366,1a4.565,4.565,0,0,0-1.274.716A4.814,4.814,0,0,0,3.421,6.551,4.625,4.625,0,0,0,3.2,7.991,4.764,4.764,0,0,0,4.6,11.379l-.757.757A5.8,5.8,0,0,1,2.131,7.991Z" transform="translate(0)" fill="#fff"/>
</svg>
